# xmcd
#
# Track frame offsets: 
#        150
#        16948
#        29055
#        49181
#        60255
#        81622
#        94774
#        112374
#        122847
#        146507
#        154685
#
# Disc length: 2866 seconds
#
# Revision: 0
# Processed by: cddbd v1.5.2PL0 Copyright (c) Steve Scherf et al.
# Submitted via: ExactAudioCopyFreeDBPlugin 1.0
#
DISCID=980b300b
DTITLE=Thee Jones Bones - Sticks and Stones
DYEAR=2007
DGENRE=Blues
TTITLE0=Gravity Kills
TTITLE1=Eclipse allright
TTITLE2=Super cocktail
TTITLE3=I'll be back to you
TTITLE4=Baby blue
TTITLE5=Get Away
TTITLE6=Too much confusion
TTITLE7=To the right thing
TTITLE8=Bobby Peru
TTITLE9=Hey Hey!
TTITLE10=Waitin' for a train
EXTD=
EXTT0=
EXTT1=
EXTT2=
EXTT3=
EXTT4=
EXTT5=
EXTT6=
EXTT7=
EXTT8=
EXTT9=
EXTT10=
PLAYORDER=
